# xmcd
#
# Track frame offsets:
#	150
#	15825
#	31425
#	48225
#	61500
#	79575
#	85875
#	102600
#	131325
#	154800
#	168825
#
# Disc length: 2556 seconds
#
# Revision: 0
# Processed by: cddbd v1.5.2PL0 Copyright (c) Steve Scherf et al.
# Submitted via: EasyCDDAExtractor 9.0.0.1
#
DISCID=7409fa0b
DTITLE=Alice Cooper - Penn's Peak Jim Thorpe PA 20-10-06 Disc 2
DYEAR=2006
DGENRE=Hard Rock
TTITLE0=Feed My Frankenstein
TTITLE1=Welcome To My Nightmare
TTITLE2=The Awakening - Steven Pt1
TTITLE3=Only Women Bleed - Steven Pt2
TTITLE4=Ballad Of Dwight Fry
TTITLE5=Killer
TTITLE6=I Love The Dead
TTITLE7=School's Out
TTITLE8=Poison
TTITLE9=Wish I Were Born In Beverly Hills
TTITLE10=Under My Wheels
EXTD=
EXTT0=
EXTT1=
EXTT2=
EXTT3=
EXTT4=
EXTT5=
EXTT6=
EXTT7=
EXTT8=
EXTT9=
EXTT10=
PLAYORDER=
